<?xml version="1.0" standalone="no"?><!DOCTYPE svg PUBLIC "-//W3C//DTD SVG 1.1//EN" "http://www.w3.org/Graphics/SVG/1.1/DTD/svg11.dtd"><svg t="1613370679186" class="icon" viewBox="0 0 1024 1024" version="1.1" xmlns="http://www.w3.org/2000/svg" p-id="18482" xmlns:xlink="http://www.w3.org/1999/xlink" width="200" height="200"><defs><style type="text/css"></style></defs><path d="M886.003 853.389c-19.66 0-806.73 0.612-821.669 0.612V202.679c0-17.712 15.006-32.071 33.516-32.071h784.818l3.335 682.781z" fill="#3A5CAC" p-id="18483"></path><path d="M205.947 275.289s574.745 0.908 626.261 0.908c0 0 0.583 40.118 0.583 65.828L551.81 393.517c-28.864 4.017-78.632 17.096-128.344 17.096H205.947V275.289z" fill="#F8F8F8" p-id="18484"></path><path d="M960.077 820.119c0 18.484-15.111 33.601-33.595 33.601H151.114c0-3.083 0.579-420.338 0.579-420.338 0-18.48 15.115-33.516 33.601-33.516h267.708c31.872 0 53.149-19.713 73.85-38.853 9.854-9.118 30.312-28.095 39.345-29.736h393.882V820.12h-0.002z" fill="#F3797D" p-id="18485"></path><path d="M803.137 489.9H543.972c-15.111 0-27.355 12.239-27.355 27.355 0 15.195 12.243 27.435 27.355 27.435h259.166c15.036 0 27.274-12.239 27.274-27.435 0.001-15.117-12.239-27.355-27.275-27.355z m0 120.917H543.972c-15.111 0-27.355 12.239-27.355 27.355 0 15.111 12.243 27.351 27.355 27.351h259.166c15.036 0 27.274-12.239 27.274-27.351 0.001-15.117-12.239-27.355-27.275-27.355z" fill="#FFFFFF" p-id="18486"></path></svg>