<?xml version="1.0" standalone="no"?><!DOCTYPE svg PUBLIC "-//W3C//DTD SVG 1.1//EN" "http://www.w3.org/Graphics/SVG/1.1/DTD/svg11.dtd"><svg t="1613370803287" class="icon" viewBox="0 0 1024 1024" version="1.1" xmlns="http://www.w3.org/2000/svg" p-id="19397" xmlns:xlink="http://www.w3.org/1999/xlink" width="200" height="200"><defs><style type="text/css"></style></defs><path d="M697 233.3H320.8c-31 0-56.2 25.1-56.2 56v506h380.5c28.7 0 51.9-23.2 51.9-51.8v-443l73-67.2h-73z" fill="#FFE91A" p-id="19398"></path><path d="M645.1 803.3H264.6c-4.4 0-8-3.6-8-8v-506c0-35.3 28.8-64 64.2-64H770c3.3 0 6.3 2 7.5 5.1 1.2 3.1 0.4 6.6-2 8.8L705 304v439.5c0 33-26.9 59.8-59.9 59.8z m-372.5-16h372.5c24.2 0 43.9-19.6 43.9-43.8v-443c0-2.2 0.9-4.4 2.6-5.9l57.9-53.3H320.8c-26.6 0-48.2 21.5-48.2 48v498z" fill="#4F0F00" p-id="19399"></path><path d="M831.4 301.1c0-37.6-30-68-67-68s-67 30.4-67 68h134z" fill="#FFC41D" p-id="19400"></path><path d="M831.4 309.1h-134c-4.4 0-8-3.6-8-8 0-41.9 33.6-76 75-76s75 34.1 75 76c0 4.4-3.6 8-8 8z m-125.5-16h117c-3.9-29.3-28.6-52-58.5-52s-54.6 22.7-58.5 52z" fill="#4F0F00" p-id="19401"></path><path d="M582.7 745.3c0-27.6 22.5-50 50.3-50H245.7v0.1c-0.8 0-1.5-0.1-2.3-0.1-27.8 0-50.3 22.4-50.3 50s22.5 50 50.3 50c0.8 0 1.6 0 2.3-0.1v0.1h347.9c3.3 0 6.3-2.1 7.3-5.2 1-2.9 0.1-6-2.1-8.1-9.9-9.1-16.1-22.2-16.1-36.7z" fill="#FFC41D" p-id="19402"></path><path d="M593.6 803.3H243.3c-32.2 0-58.3-26-58.3-58s26.2-58 58.3-58H633c4.4 0 8 3.6 8 8s-3.6 8-8 8c-23.3 0-42.3 18.8-42.3 42 0 11.8 4.8 22.7 13.5 30.8 4.6 4.2 6.2 10.7 4.3 16.5-2.2 6.5-8.2 10.7-14.9 10.7z m-0.2-15.4z m-346.8-0.6h346.1c-11.5-10.9-18.1-26.2-18.1-42 0-16.5 7-31.4 18.1-42H246.6c-0.4 0.1-0.9 0.1-1.3 0.1-0.7 0-1.3-0.1-2-0.1-23.3 0-42.3 18.8-42.3 42s19 42 42.3 42c0.7 0 1.3 0 2-0.1 0.4 0.1 0.9 0.1 1.3 0.1z" fill="#4F0F00" p-id="19403"></path><path d="M586.9 744.3a48 48 0 1 0 96 0 48 48 0 1 0-96 0Z" fill="#FFE91A" p-id="19404"></path><path d="M528 349.1H338c-16.6 0-30-13.4-30-30s13.4-30 30-30h190c16.6 0 30 13.4 30 30s-13.5 30-30 30z" fill="#FC5B5B" p-id="19405"></path><path d="M528 357.1H338c-20.9 0-38-17-38-38s17-38 38-38h190c20.9 0 38 17 38 38s-17.1 38-38 38z m-190.1-60c-12.1 0-22 9.9-22 22s9.9 22 22 22h190c12.1 0 22-9.9 22-22s-9.9-22-22-22h-190z" fill="#4F0F00" p-id="19406"></path><path d="M548.7 428.2h-226c-8.3 0-15-6.7-15-15s6.7-15 15-15h226c8.3 0 15 6.7 15 15s-6.7 15-15 15z" fill="#FFC41D" p-id="19407"></path><path d="M548.7 436.2h-226c-12.7 0-23-10.3-23-23s10.3-23 23-23h226c12.7 0 23 10.3 23 23s-10.3 23-23 23z m-226-30c-3.9 0-7 3.1-7 7s3.1 7 7 7h226c3.9 0 7-3.1 7-7s-3.1-7-7-7h-226z" fill="#4F0F00" p-id="19408"></path><path d="M500.5 522.3h-178c-8.3 0-15-6.7-15-15s6.7-15 15-15h178c8.3 0 15 6.7 15 15s-6.7 15-15 15z" fill="#FFC41D" p-id="19409"></path><path d="M500.5 530.3h-178c-12.7 0-23-10.3-23-23s10.3-23 23-23h178c12.7 0 23 10.3 23 23s-10.3 23-23 23z m-178-30c-3.9 0-7 3.1-7 7s3.1 7 7 7h178c3.9 0 7-3.1 7-7s-3.1-7-7-7h-178z" fill="#4F0F00" p-id="19410"></path><path d="M453 616.4H323c-8.3 0-15-6.7-15-15s6.7-15 15-15h130c8.3 0 15 6.7 15 15s-6.8 15-15 15z" fill="#FFC41D" p-id="19411"></path><path d="M453 624.4H323c-12.7 0-23-10.3-23-23s10.3-23 23-23h130c12.7 0 23 10.3 23 23s-10.4 23-23 23z m-130-30c-3.9 0-7 3.1-7 7s3.1 7 7 7h130c3.9 0 7-3.1 7-7s-3.1-7-7-7H323z" fill="#4F0F00" p-id="19412"></path><path d="M512.3 637.6l51-34.9-43.6-26.5z" fill="#FFC41D" p-id="19413"></path><path d="M512.3 645.6c-1.4 0-2.9-0.4-4.2-1.2-2.7-1.6-4.2-4.7-3.8-7.8l7.4-61.4c0.3-2.7 2-5 4.4-6.2 2.4-1.2 5.3-1.1 7.6 0.4l43.6 26.4c2.3 1.4 3.8 3.9 3.9 6.6s-1.2 5.3-3.5 6.8l-51 34.9c-1.2 1-2.8 1.5-4.4 1.5z m13.9-56.1l-3.8 31.5 26.2-17.9-22.4-13.6z" fill="#4F0F00" p-id="19414"></path><path d="M622.38 405.703l44.813 27.159-98.53 162.574-44.812-27.16z" fill="#FC5B5B" p-id="19415"></path><path d="M568.5 603.4c-1.4 0-2.8-0.4-4.1-1.2L519.6 575c-1.8-1.1-3.1-2.9-3.6-4.9-0.5-2.1-0.2-4.2 0.9-6.1l98.7-162.5c2.3-3.8 7.2-5 11-2.7l44.8 27.2c1.8 1.1 3.1 2.9 3.6 4.9 0.5 2.1 0.2 4.2-0.9 6.1l-98.7 162.5c-1.5 2.6-4.2 3.9-6.9 3.9z m-33.8-37.8l31.1 18.9 90.4-148.9-31.1-18.9-90.4 148.9z" fill="#4F0F00" p-id="19416"></path><path d="M664.4 400.5l-11.3-6.9c-9.4-5.7-21.7-2.7-27.5 6.7l-7.1 11.8 44.8 27.2 7.6-12.4c5.5-9.1 2.6-20.9-6.5-26.4z" fill="#FFC41D" p-id="19417"></path><path d="M663.3 447.3c-1.4 0-2.8-0.4-4.1-1.2L614.4 419c-1.8-1.1-3.1-2.9-3.6-4.9-0.5-2.1-0.2-4.2 0.9-6.1l7.1-11.8c8-13.2 25.2-17.4 38.4-9.4l11.3 6.9c6.2 3.8 10.6 9.7 12.3 16.8 1.7 7 0.6 14.3-3.2 20.5l-7.6 12.4c-1.3 2.5-4 3.9-6.7 3.9z m-33.8-37.8l31.1 18.9 3.4-5.6c1.5-2.5 2-5.5 1.3-8.4-0.7-2.9-2.5-5.3-5-6.9l-11.3-6.9c-5.7-3.4-13-1.6-16.5 4l-3 4.9z" fill="#4F0F00" p-id="19418"></path></svg>