<?xml version="1.0" standalone="no"?><!DOCTYPE svg PUBLIC "-//W3C//DTD SVG 1.1//EN" "http://www.w3.org/Graphics/SVG/1.1/DTD/svg11.dtd"><svg t="1613371392142" class="icon" viewBox="0 0 1045 1024" version="1.1" xmlns="http://www.w3.org/2000/svg" p-id="32760" xmlns:xlink="http://www.w3.org/1999/xlink" width="204.1015625" height="200"><defs><style type="text/css"></style></defs><path d="M811.226704 125.670654l75.13568 61.168374C471.449193 620.386991 0 765.324103 0 765.324103 681.765928 679.800679 979.430961 242.708249 979.430961 242.708249l65.83584 53.202097V0zM861.761678 476.50269v547.462216h160.90476V315.843586a967.744748 967.744748 0 0 1-160.90476 160.659104zM646.321258 1023.333219H807.155831V517.492169a1482.464512 1482.464512 0 0 1-160.90476 98.753761zM430.880839 1022.666438h160.90476V644.07526c-53.974159 26.390486-108.158881 49.65763-160.90476 70.187463zM0 1021.999657h160.90476v-221.09051c-70.187464 18.354022-126.653278 30.040234-160.90476 36.462387zM215.440419 1021.999657h160.904761V734.511806A2494.202762 2494.202762 0 0 1 215.440419 786.099592z" fill="#EC6968" p-id="32761"></path></svg>