<?xml version="1.0" standalone="no"?><!DOCTYPE svg PUBLIC "-//W3C//DTD SVG 1.1//EN" "http://www.w3.org/Graphics/SVG/1.1/DTD/svg11.dtd"><svg t="1613366893141" class="icon" viewBox="0 0 1024 1024" version="1.1" xmlns="http://www.w3.org/2000/svg" p-id="3314" xmlns:xlink="http://www.w3.org/1999/xlink" width="200" height="200"><defs><style type="text/css"></style></defs><path d="M590.222222 883.2c-18.488889 0-36.977778-8.533333-49.777778-22.755556l-5.688888-5.688888c-2.844444-2.844444-5.688889-2.844444-7.111112-2.844445-1.422222 0-4.266667 0-7.111111 2.844445l-1.422222 1.422222c-17.066667 18.488889-42.666667 27.022222-66.844444 19.911111-31.288889-8.533333-62.577778-21.333333-89.6-39.822222-19.911111-12.8-32.711111-35.555556-31.288889-59.733334 0-4.266667-1.422222-7.111111-2.844445-7.111111-1.422222-1.422222-4.266667-2.844444-7.111111-2.844444-25.6 1.422222-46.933333-9.955556-59.733333-29.866667-18.488889-27.022222-31.288889-56.888889-41.244445-88.177778-7.111111-24.177778 0-51.2 19.911112-68.266666l2.844444-2.844445c2.844444-2.844444 2.844444-5.688889 2.844444-7.111111 0-1.422222 0-4.266667-2.844444-7.111111l-9.955556-8.533333c-17.066667-15.644444-25.6-39.822222-21.333333-62.577778 5.688889-28.444444 14.222222-55.466667 27.022222-82.488889 11.377778-24.177778 36.977778-38.4 64-36.977778l18.488889 1.422222c4.266667 0 7.111111-1.422222 7.111111-2.844444 1.422222-1.422222 2.844444-4.266667 2.844445-7.111111l-1.422222-29.866667c-1.422222-24.177778 9.955556-46.933333 29.866666-59.733333 19.911111-12.8 42.666667-24.177778 65.422222-32.711111 25.6-9.955556 54.044444-1.422222 72.533334 18.488889l22.755555 25.6c2.844444 2.844444 5.688889 2.844444 7.111111 2.844444 1.422222 0 4.266667 0 7.111112-2.844444l28.444444-31.288889c17.066667-18.488889 44.088889-27.022222 66.844444-19.911111 19.911111 5.688889 39.822222 12.8 58.311112 22.755555 22.755556 11.377778 36.977778 36.977778 35.555555 62.577778l-2.844444 44.088889c0 4.266667 1.422222 7.111111 2.844444 7.111111 1.422222 1.422222 4.266667 2.844444 7.111111 2.844444l42.666667-2.844444c27.022222-1.422222 51.2 12.8 64 36.977778 9.955556 19.911111 17.066667 39.822222 22.755555 61.155555 5.688889 24.177778-1.422222 49.777778-19.911111 66.844445L810.666667 563.2c-2.844444 2.844444-2.844444 5.688889-2.844445 7.111111 0 1.422222 0 4.266667 2.844445 7.111111l22.755555 19.911111c19.911111 18.488889 27.022222 46.933333 18.488889 72.533334-8.533333 24.177778-19.911111 46.933333-34.133333 68.266666-12.8 19.911111-35.555556 31.288889-59.733334 29.866667l-25.6-1.422222c-4.266667 0-7.111111 1.422222-7.111111 2.844444s-2.844444 4.266667-2.844444 7.111111v14.222223c1.422222 27.022222-12.8 51.2-36.977778 62.577777-27.022222 12.8-55.466667 22.755556-85.333333 28.444445-1.422222 1.422222-5.688889 1.422222-9.955556 1.422222z m-62.577778-88.177778c18.488889 0 36.977778 8.533333 49.777778 22.755556l5.688889 5.688889c2.844444 2.844444 5.688889 4.266667 8.533333 2.844444 24.177778-4.266667 48.355556-12.8 71.111112-24.177778 2.844444-1.422222 5.688889-5.688889 4.266666-8.533333v-14.222222c-1.422222-18.488889 5.688889-36.977778 19.911111-51.2 12.8-12.8 31.288889-21.333333 51.2-19.911111l25.6 1.422222c2.844444 0 7.111111-1.422222 8.533334-4.266667 11.377778-17.066667 21.333333-36.977778 28.444444-56.888889 1.422222-2.844444 0-7.111111-2.844444-9.955555l-22.755556-19.911111c-14.222222-12.8-22.755556-31.288889-22.755555-49.777778 0-18.488889 8.533333-36.977778 22.755555-49.777778l29.866667-27.022222c2.844444-2.844444 4.266667-5.688889 2.844444-9.955556-4.266667-17.066667-11.377778-34.133333-18.488889-49.777777-1.422222-2.844444-5.688889-5.688889-9.955555-5.688889l-42.666667 2.844444c-18.488889 1.422222-36.977778-5.688889-51.2-19.911111-12.8-12.8-19.911111-31.288889-19.911111-51.2l2.844444-44.088889c0-4.266667-1.422222-7.111111-4.266666-8.533333-15.644444-8.533333-32.711111-14.222222-48.355556-18.488889-2.844444-1.422222-7.111111 0-9.955555 2.844444l-28.444445 31.288889c-12.8 14.222222-31.288889 22.755556-49.777778 22.755556-18.488889 0-36.977778-8.533333-49.777777-22.755556L455.111111 297.244444c-2.844444-2.844444-7.111111-4.266667-9.955555-2.844444-18.488889 7.111111-36.977778 15.644444-54.044445 27.022222-2.844444 1.422222-4.266667 5.688889-4.266667 8.533334l1.422223 29.866666c1.422222 18.488889-5.688889 36.977778-19.911111 51.2-12.8 12.8-31.288889 19.911111-51.2 19.911111l-18.488889-1.422222c-4.266667 0-7.111111 1.422222-9.955556 5.688889-9.955556 21.333333-18.488889 44.088889-22.755555 68.266667 0 2.844444 0 7.111111 2.844444 9.955555l8.533333 8.533334c14.222222 12.8 22.755556 31.288889 22.755556 49.777777 0 18.488889-8.533333 36.977778-22.755556 49.777778l-2.844444 2.844445c-2.844444 2.844444-4.266667 7.111111-2.844445 9.955555 7.111111 25.6 18.488889 49.777778 34.133334 72.533333 1.422222 2.844444 5.688889 4.266667 8.533333 4.266667 19.911111-1.422222 38.4 5.688889 51.2 19.911111 12.8 12.8 19.911111 31.288889 19.911111 51.2 0 4.266667 1.422222 7.111111 4.266667 8.533334 22.755556 14.222222 48.355556 25.6 73.955555 32.711111 2.844444 1.422222 7.111111 0 9.955556-2.844445l1.422222-1.422222c15.644444-17.066667 34.133333-24.177778 52.622222-24.177778z m250.311112-395.377778z" fill="#3FA6AD" p-id="3315"></path><path d="M537.6 716.8c-88.177778 0-160.711111-72.533333-160.711111-160.711111 0-88.177778 72.533333-160.711111 160.711111-160.711111 88.177778 0 160.711111 72.533333 160.711111 160.711111 0 89.6-71.111111 160.711111-160.711111 160.711111z m0-263.111111c-56.888889 0-103.822222 46.933333-103.822222 103.822222s46.933333 103.822222 103.822222 103.822222 103.822222-46.933333 103.822222-103.822222-45.511111-103.822222-103.822222-103.822222z" fill="#DC4569" p-id="3316"></path></svg>