<?xml version="1.0" standalone="no"?><!DOCTYPE svg PUBLIC "-//W3C//DTD SVG 1.1//EN" "http://www.w3.org/Graphics/SVG/1.1/DTD/svg11.dtd"><svg t="1613371667562" class="icon" viewBox="0 0 1024 1024" version="1.1" xmlns="http://www.w3.org/2000/svg" p-id="44329" xmlns:xlink="http://www.w3.org/1999/xlink" width="200" height="200"><defs><style type="text/css"></style></defs><path d="M237.376247 0m126.709615 0l506.429898 0q126.709616 0 126.709616 126.709616l0 595.469823q0 126.709616-126.709616 126.709615l-506.429898 0q-126.709616 0-126.709615-126.709615l0-595.469823q0-126.709616 126.709615-126.709616Z" fill="#E50065" opacity=".63" p-id="44330"></path><path d="M997.225376 125.293257a125.293257 125.293257 0 0 0-125.293257-125.293257h-49.681501v92.390158a64.907355 64.907355 0 0 0 64.880117 64.907355h110.203591z" fill="#E50065" opacity=".49" p-id="44331"></path><path d="M26.665674 175.110946m126.709615 0l506.429898 0q126.709616 0 126.709616 126.709615l0 595.469823q0 126.709616-126.709616 126.709616l-506.429898 0q-126.709616 0-126.709615-126.709616l0-595.469823q0-126.709616 126.709615-126.709615Z" fill="#FFC530" opacity=".56" p-id="44332"></path><path d="M237.376247 424.444527a80.133209 80.133209 0 1 0 160.266418 0 80.133209 80.133209 0 1 0-160.266418 0Z" fill="#FFFFFF" p-id="44333"></path><path d="M302.692167 504.577736h29.689054a130.604602 130.604602 0 0 1 130.604602 130.604602h-290.898258a130.604602 130.604602 0 0 1 130.604602-130.604602z" fill="#FFFFFF" p-id="44334"></path><path d="M786.487565 300.540391a125.293257 125.293257 0 0 0-125.293257-125.456683h-49.6815v92.390158a64.907355 64.907355 0 0 0 64.907354 64.907355h110.176353z" fill="#FFC530" opacity=".4" p-id="44335"></path><path d="M169.118659 756.880223h415.537811v47.502487h-415.537811z" fill="#FFFFFF" p-id="44336"></path></svg>