<?xml version="1.0" standalone="no"?><!DOCTYPE svg PUBLIC "-//W3C//DTD SVG 1.1//EN" "http://www.w3.org/Graphics/SVG/1.1/DTD/svg11.dtd"><svg t="1615894455643" class="icon" viewBox="0 0 1526 1024" version="1.1" xmlns="http://www.w3.org/2000/svg" p-id="1774" xmlns:xlink="http://www.w3.org/1999/xlink" width="298.046875" height="200"><defs><style type="text/css"></style></defs><path d="M611.343284 136.703151C506.389439 136.703151 400.922959 174.296517 320.849088 256.318408 205.266574 369.098507 201.233831 546.812604 201.233831 683.515755h820.218905c0-136.703151-4.032743-314.417247-119.615257-427.197347C821.763609 174.296517 716.297128 136.703151 611.343284 136.703151z" fill="#1ABC9C" p-id="1775"></path><path d="M611.343284 239.230514c-18.865035 0-34.175788 13.670315-34.175788 34.175788 0 17.087894 15.310753 34.175788 34.175788 34.175788s34.175788-17.087894 34.175787-34.175788c0-20.505473-15.310753-34.175788-34.175787-34.175788z m170.878938 34.175788c-18.865035 0-34.175788 13.670315-34.175788 34.175788 0 17.087894 15.310753 34.175788 34.175788 34.175787s34.175788-17.087894 34.175788-34.175787c0-20.505473-15.310753-34.175788-34.175788-34.175788zM440.464345 273.406302c-18.865035 0-34.175788 13.670315-34.175788 34.175788 0 17.087894 15.310753 34.175788 34.175788 34.175787s34.175788-17.087894 34.175788-34.175787c0-20.505473-15.310753-34.175788-34.175788-34.175788z m444.28524 129.867993c-18.865035 0-34.175788 17.087894-34.175787 34.175788 0 20.505473 15.310753 34.175788 34.175787 34.175788s34.175788-13.670315 34.175788-34.175788c0-17.087894-15.310753-34.175788-34.175788-34.175788zM337.936982 410.109453c-18.865035 0-34.175788 13.670315-34.175788 34.175787 0 17.087894 15.310753 34.175788 34.175788 34.175788s34.175788-17.087894 34.175787-34.175788c0-20.505473-15.310753-34.175788-34.175787-34.175787z m-34.175788 170.878938c-18.865035 0-34.175788 13.670315-34.175788 34.175788 0 17.087894 15.310753 34.175788 34.175788 34.175788s34.175788-17.087894 34.175788-34.175788c0-20.505473-15.310753-34.175788-34.175788-34.175788z m615.164179 0c-18.865035 0-34.175788 13.670315-34.175788 34.175788 0 17.087894 15.310753 34.175788 34.175788 34.175788s34.175788-17.087894 34.175788-34.175788c0-20.505473-15.310753-34.175788-34.175788-34.175788zM659.667847 628.86867a68.351575 68.351575 0 1 1-96.649127-96.717479 68.351575 68.351575 0 0 1 96.649127 96.717479z" fill="#16A085" p-id="1776"></path><path d="M877.162561 280.275635l-241.62282 290.015735-48.358739-48.35874z" fill="#C0392B" p-id="1777"></path><path d="M876.513221 314.417247a6.766806 43.061493 45 0 0-1.503735 0 6.766806 43.061493 45 0 0-17.395476 10.252736l-273.372126 228.977778h2.289778l-72.521022 71.769154c-13.328557 13.670315-13.328557 37.593367 0 51.263682 13.328557 13.670315 34.996007 13.670315 48.324564 0l72.521022-75.186733 3.007469 3.417579 228.089207-273.406302a6.766806 43.061493 45 0 0 11.312186-17.087894 6.766806 43.061493 45 0 0-0.751867 0z" fill="#16A085" p-id="1778"></path><path d="M877.162561 280.241459a6.766806 43.061493 45 0 0-1.503735 0 6.766806 43.061493 45 0 0-17.3613 10.252737l-273.372126 228.977777 2.255602 3.417579-72.486846 71.769154c-13.362733 13.670315-13.362733 34.175788 0 47.846103 13.328557 13.670315 34.961831 13.670315 48.324564 0l72.486846-71.769154 3.007469 3.417579 228.089207-273.406302a6.766806 43.061493 45 0 0 11.312186-20.505473 6.766806 43.061493 45 0 0-0.751867 0z" fill="#C0392B" p-id="1779"></path><path d="M659.667847 594.692882a68.351575 68.351575 0 1 1-96.649127-96.717479 68.351575 68.351575 0 0 1 96.649127 96.717479z" fill="#E74C3C" p-id="1780"></path><path d="M635.505566 569.983788a34.175788 34.175788 0 1 1-48.324564-48.392916 34.175788 34.175788 0 0 1 48.324564 48.392916zM611.343284 205.054726a34.175788 34.175788 0 1 0 0 68.351576 34.175788 34.175788 0 0 0 0-68.351576z m170.878938 34.175788a34.175788 34.175788 0 1 0 0 68.351576 34.175788 34.175788 0 0 0 0-68.351576zM440.464345 239.230514a34.175788 34.175788 0 1 0 0 68.351576 34.175788 34.175788 0 0 0 0-68.351576z m444.28524 131.371728a34.175788 34.175788 0 1 0 0 68.351576 34.175788 34.175788 0 0 0 0-68.351576zM337.936982 375.933665a34.175788 34.175788 0 1 0 0 68.351575 34.175788 34.175788 0 0 0 0-68.351575z m-34.175788 170.878939a34.175788 34.175788 0 1 0 0 68.351575 34.175788 34.175788 0 0 0 0-68.351575z m615.164179 0a34.175788 34.175788 0 1 0 0 68.351575 34.175788 34.175788 0 0 0 0-68.351575z" fill="#ECF0F1" p-id="1781"></path><path d="M611.343284 136.703151C506.389439 136.703151 400.922959 174.296517 320.849088 256.318408 210.461294 365.680929 201.780643 529.72471 201.233831 663.010282c2.358129-126.450415 18.454925-273.406302 119.615257-372.516086C400.922959 208.472305 506.389439 170.878939 611.343284 170.878939c104.953844 0 210.420325 37.593367 290.494195 119.615257 101.126156 99.109784 117.257128 246.065672 119.615257 372.516086-0.546813-133.285572-9.227463-297.329353-119.615257-406.691874C821.763609 174.296517 716.297128 136.703151 611.343284 136.703151z" fill="#16A085" p-id="1782"></path></svg>