<?xml version="1.0" standalone="no"?><!DOCTYPE svg PUBLIC "-//W3C//DTD SVG 1.1//EN" "http://www.w3.org/Graphics/SVG/1.1/DTD/svg11.dtd"><svg t="1613371543600" class="icon" viewBox="0 0 1024 1024" version="1.1" xmlns="http://www.w3.org/2000/svg" p-id="39473" xmlns:xlink="http://www.w3.org/1999/xlink" width="200" height="200"><defs><style type="text/css"></style></defs><path d="M211.5 392.5v426.4c0 24.5 19.8 44.3 44.3 44.3h52.5c10 0 18.1-8.1 18.1-18.1V486h374.3v359.1c0 10 8.1 18.1 18.1 18.1h52.5c24.5 0 44.3-19.8 44.3-44.3V392.5H211.5z" fill="#FF9794" p-id="39474"></path><path d="M168.2 398.1h690.7c20.8 0 28.8-27 11.5-38.4L514.2 156.1 157.1 359.5c-17.8 11.1-10 38.6 11.1 38.6z" fill="#FF9794" p-id="39475"></path><path d="M585.9 681.7H441.1c-3.8 0-7-3.1-7-7V529.9c0-3.8 3.1-7 7-7H586c3.8 0 7 3.1 7 7v144.9c-0.1 3.8-3.2 6.9-7.1 6.9z" fill="#F7D48F" p-id="39476"></path><path d="M498.1 857.5H353.3c-3.8 0-7-3.1-7-7V705.7c0-3.8 3.1-7 7-7h144.9c3.8 0 7 3.1 7 7v144.9c-0.1 3.8-3.2 6.9-7.1 6.9z" fill="#F8AA82" p-id="39477"></path><path d="M673.8 857.5H528.9c-3.8 0-7-3.1-7-7V705.7c0-3.8 3.1-7 7-7h144.9c3.8 0 7 3.1 7 7v144.9c-0.1 3.8-3.2 6.9-7 6.9z" fill="#F7B584" p-id="39478"></path></svg>